<?xml version="1.0" encoding="UTF-8" standalone="no"?>
<svg
   version="1.1"
   x="0px"
   y="0px"
   viewBox="0 0 150 150"
   enable-background="new 0 0 100 100"
   xml:space="preserve"
   id="svg20"
   sodipodi:docname="logo.svg"
   inkscape:version="1.1 (c68e22c387, 2021-05-23)"
   width="150"
   height="150"
   inkscape:export-filename="D:\Projekte\WebProjekte\xampp\htdocs\inether\src\images\logo\logo.png"
   inkscape:export-xdpi="192"
   inkscape:export-ydpi="192"
   xmlns:inkscape="http://www.inkscape.org/namespaces/inkscape"
   xmlns:sodipodi="http://sodipodi.sourceforge.net/DTD/sodipodi-0.dtd"
   xmlns="http://www.w3.org/2000/svg"
   xmlns:svg="http://www.w3.org/2000/svg"><defs
     id="defs24" /><sodipodi:namedview
     id="namedview22"
     pagecolor="#ffffff"
     bordercolor="#666666"
     borderopacity="1.0"
     inkscape:pageshadow="2"
     inkscape:pageopacity="0.0"
     inkscape:pagecheckerboard="0"
     showgrid="false"
     inkscape:zoom="1.8441345"
     inkscape:cx="-62.088747"
     inkscape:cy="27.92638"
     inkscape:window-width="1600"
     inkscape:window-height="837"
     inkscape:window-x="-8"
     inkscape:window-y="-8"
     inkscape:window-maximized="1"
     inkscape:current-layer="svg20"
     height="100px"
     width="150px" /><path
     d="m 101.92945,116.96374 14,-4.746 V 62.170742 c 0,-0.895 0.295,-1.627 0.295,-2.329 0,-18.366 -17.264002,-33.308 -38.604002,-33.308 -6.299,0 -12.198,1.311 -17.46,3.618 2.821,-0.791 5.813,-1.223 8.884,-1.223 18.131,0 32.925002,14.751 32.925002,32.882 0,0.68 -0.04,1.397 -0.04,2.256 z"
     id="path2" /><g
     id="g8"
     transform="translate(22.929448,21.584742)"><path
       fill="none"
       stroke="#000000"
       stroke-miterlimit="10"
       d="m 77.996,39.227 c 0,-17.734 -14.377,-32.113 -32.112,-32.113 -17.737,0 -32.115,14.379 -32.115,32.113 0,0.748 0.034,1.486 0.085,2.219 V 94.232 H 77.912 V 41.455 c 0.049,-0.736 0.084,-1.478 0.084,-2.228 z"
       id="path4" /><path
       fill="none"
       stroke="#000000"
       stroke-miterlimit="10"
       d="M 78.681,95 H 13.085 V 41.473 C 13.027,40.619 13,39.906 13,39.227 13,21.096 27.751,6.345 45.884,6.345 c 18.131,0 32.881,14.751 32.881,32.882 0,0.68 -0.026,1.397 -0.084,2.256 z M 14.622,93.463 h 62.521 l 0.001,-52.06 c 0.058,-0.833 0.084,-1.526 0.084,-2.177 0,-17.283 -14.061,-31.344 -31.344,-31.344 -17.284,0 -31.347,14.061 -31.347,31.344 0,0.65 0.027,1.339 0.083,2.167 l 0.002,0.052 z"
       id="path6" /></g><path
     id="Auswahl"
     fill="none"
     stroke="#000000"
     stroke-width="1"
     d="m 66.0234,43.674375 -1.83578,3.380647 -2.621478,5.133576 -2.131081,4.131904 -1.087396,2.378972 5.330372,3.706193 c 0.404042,0.281719 1.882688,1.419871 2.238756,1.441154 0.39658,0.02379 1.706786,-1.004176 2.132149,-1.283393 l 5.543589,-3.863954 -2.388007,-4.883156 z m -7.484104,16.901701 c 0.256192,0.618946 0.41021,0.997978 0.590867,1.378837 l 1.279289,2.128555 3.478601,5.759622 c 0.525576,0.902758 1.465853,2.762113 2.135347,3.380644 l 1.82512,-3.005019 2.668387,-4.507528 2.933698,-4.905433 c -0.857994,0.474727 -1.678929,1.040226 -2.416654,1.573617 l -2.985009,2.062193 c -0.415768,0.28673 -1.615103,1.258354 -2.025542,1.284647 -0.448817,0.0288 -1.695058,-0.964109 -2.132149,-1.265864 z"
     sodipodi:nodetypes="cccccccccccccccccccccccc"
     style="fill:#000000;fill-opacity:0.992701;stroke:#ffffff;stroke-width:0;stroke-miterlimit:4;stroke-dasharray:none;stroke-opacity:1" /><path
     id="Auswahl-6"
     fill="none"
     stroke="#000000"
     stroke-width="0.110922"
     d="m 50.461554,79.1737 c 1.291889,-0.866474 2.668841,-1.334424 4.075916,-1.30943 1.291892,0.02361 2.869979,0.631803 4.075919,1.344144 2.498757,1.27379 4.50461,3.888012 6.266279,6.609635 l 1.419483,2.460561 1.542647,3.332588 c 0.741638,1.599644 1.582518,3.17568 2.468587,4.582311 1.354974,2.043572 3.213028,4.171591 4.606673,4.991941 1.563912,0.89841 2.716689,1.11087 4.341739,0.44018 1.312043,-0.79238 2.339112,-1.57942 3.189847,-2.93268 1.398701,-2.705049 1.569019,-3.820658 1.772136,-6.52632 0.01871,-2.614694 -0.624677,-5.054426 -1.775681,-6.942893 -1.342613,-1.83138 -2.95705,-3.373614 -5.321566,-3.926354 -2.255465,-0.333016 -6.053833,1.828221 -8.666803,5.882862 -2.44185,3.442784 -0.669884,-1.014784 0.43506,-2.6383 1.33826,-2.201736 3.199413,-3.633158 4.430342,-4.397628 0.985311,-0.581815 2.583778,-1.160852 3.632885,-1.169184 1.745554,-0.0125 2.522638,0.134693 4.164524,1.194178 2.071046,1.265327 3.605821,3.939853 4.402878,6.165289 1.430111,4.081032 1.329984,9.143788 -0.08862,13.191499 -0.995485,2.710921 -2.27078,4.446451 -3.873737,5.736711 -6.112041,3.92934 -12.048409,-0.54975 -15.498233,-7.044262 -2.718492,-5.521866 -2.656103,-5.405174 -3.808477,-7.579354 -0.694678,-1.308041 -1.49037,-2.718837 -2.310869,-3.8297 -1.773734,-2.090991 -3.562004,-4.319868 -5.759448,-4.319868 -2.151304,-0.317384 -5.203726,2.400132 -6.413366,5.37241 -1.216573,3.146519 -1.101386,7.115077 0.213543,10.136626 1.02687,1.972653 1.954585,3.423198 3.453011,4.462898 5.401806,3.87984 11.850536,-6.056762 11.94959,-5.816147 v 0 c 0.668948,0.662064 -3.947106,8.078947 -8.341516,8.907117 -3.429211,0.47884 -8.498289,-1.89493 -9.909796,-10.192171 -0.595257,-4.087879 -0.0497,-7.989352 1.314927,-11.108627 0.388098,-0.869251 0.777967,-1.487167 1.265307,-2.216171 0.765306,-1.281238 1.647323,-2.091288 2.746813,-2.861861 z"
     style="fill:#000000"
     sodipodi:nodetypes="ccccccccccccccccccccccccccccccccccc" /></svg>
