<?xml version="1.0" encoding="UTF-8" standalone="no"?>
<svg
   width="1.70667in"
   height="1.70667in"
   viewBox="0 0 512 512"
   version="1.1"
   id="svg3"
   sodipodi:docname="infinite.svg"
   inkscape:version="1.1 (c68e22c387, 2021-05-23)"
   xmlns:inkscape="http://www.inkscape.org/namespaces/inkscape"
   xmlns:sodipodi="http://sodipodi.sourceforge.net/DTD/sodipodi-0.dtd"
   xmlns="http://www.w3.org/2000/svg"
   xmlns:svg="http://www.w3.org/2000/svg">
  <defs
     id="defs7" />
  <sodipodi:namedview
     id="namedview5"
     pagecolor="#ffffff"
     bordercolor="#666666"
     borderopacity="1.0"
     inkscape:pageshadow="2"
     inkscape:pageopacity="0.0"
     inkscape:pagecheckerboard="0"
     inkscape:document-units="in"
     showgrid="false"
     inkscape:zoom="3.9794843"
     inkscape:cx="55.660478"
     inkscape:cy="124.01104"
     inkscape:window-width="1600"
     inkscape:window-height="837"
     inkscape:window-x="-8"
     inkscape:window-y="-8"
     inkscape:window-maximized="1"
     inkscape:current-layer="svg3" />
  <path
     id="Auswahl"
     fill="none"
     stroke="#000000"
     stroke-width="1"
     d="m 84,160.43 c 14.58,-6.24 30.12,-9.61 46,-9.43 14.58,0.17 32.39,4.55 46,9.68 28.20046,9.17334 50.83813,27.99994 70.72,47.6 l 16.02,17.72 17.41,24 c 8.37,11.52 17.86,22.87 27.86,33 15.29197,14.71702 36.2616,30.04215 51.99,35.95 17.65,6.47 30.66,8 49,3.17 14.80748,-5.70642 26.39877,-11.37439 36,-21.12 15.78546,-19.48072 17.70763,-27.51488 20,-47 0.21,-18.83 -7.05,-36.4 -20.04,-50 -15.15246,-13.18888 -33.37268,-24.29545 -60.05816,-28.27607 -25.45475,-2.39825 -68.32236,13.16614 -97.81184,42.36607 -27.55824,24.79359 -7.56018,-7.30807 4.91,-19 15.10335,-15.85604 36.10795,-26.16458 50,-31.67 11.12,-4.19 29.16,-8.36 41,-8.42 19.7,-0.09 28.47,0.97 47,8.6 23.3734,9.11239 40.69457,28.37328 49.69,44.4 16.14,29.39 15.01,65.85 -1,95 -11.2349,19.52292 -25.62763,32.02157 -43.71827,41.31354 -68.9793,28.29757 -135.97595,-3.95914 -174.91,-50.73 C 229.38137,257.81723 230.08546,258.6576 217.08,243 209.24,233.58 200.26,223.42 191,215.42 170.98197,200.3615 150.79992,184.31 126,184.31 101.72082,182.02433 67.271758,201.59482 53.62,223 c -13.73,22.66 -12.43,51.24 2.41,73 11.589049,14.2063 22.059057,24.65247 38.97,32.14 60.96371,27.94112 133.74279,-43.61836 134.86072,-41.88557 v 0 C 237.41032,291.02237 185.31446,344.43581 135.72,350.4 97.018603,353.84839 39.809975,336.75345 23.88,277 17.162039,247.56068 23.319078,219.4638 38.72,197 43.1,190.74 47.5,186.29 53,181.04 c 8.637108,-9.22697 18.591375,-15.06063 31,-20.61 z"
     style="fill:#000000"
     sodipodi:nodetypes="ccccccccccccccccccccccccccccccccccc" />
</svg>
