<?xml version="1.0" encoding="UTF-8" standalone="no"?>
<svg
   version="1.1"
   x="0px"
   y="0px"
   viewBox="0 0 100 125"
   enable-background="new 0 0 100 100"
   xml:space="preserve"
   id="svg20"
   sodipodi:docname="tombstone.svg"
   inkscape:version="1.1 (c68e22c387, 2021-05-23)"
   xmlns:inkscape="http://www.inkscape.org/namespaces/inkscape"
   xmlns:sodipodi="http://sodipodi.sourceforge.net/DTD/sodipodi-0.dtd"
   xmlns="http://www.w3.org/2000/svg"
   xmlns:svg="http://www.w3.org/2000/svg"><defs
     id="defs24" /><sodipodi:namedview
     id="namedview22"
     pagecolor="#ffffff"
     bordercolor="#666666"
     borderopacity="1.0"
     inkscape:pageshadow="2"
     inkscape:pageopacity="0.0"
     inkscape:pagecheckerboard="0"
     showgrid="false"
     inkscape:zoom="0.92206724"
     inkscape:cx="-300.95419"
     inkscape:cy="111.16326"
     inkscape:window-width="1600"
     inkscape:window-height="837"
     inkscape:window-x="-8"
     inkscape:window-y="-8"
     inkscape:window-maximized="1"
     inkscape:current-layer="svg20" /><path
     d="M79,95.379l14-4.746V40.586c0-0.895,0.295-1.627,0.295-2.329c0-18.366-17.264-33.308-38.604-33.308  c-6.299,0-12.198,1.311-17.46,3.618c2.821-0.791,5.813-1.223,8.884-1.223c18.131,0,32.925,14.751,32.925,32.882  c0,0.68-0.04,1.397-0.04,2.256V95.379z"
     id="path2" /><g
     id="g8"><path
       fill="none"
       stroke="#000000"
       stroke-miterlimit="10"
       d="M77.996,39.227c0-17.734-14.377-32.113-32.112-32.113   c-17.737,0-32.115,14.379-32.115,32.113c0,0.748,0.034,1.486,0.085,2.219v52.786h64.058V41.455   C77.961,40.719,77.996,39.977,77.996,39.227z"
       id="path4" /><path
       fill="none"
       stroke="#000000"
       stroke-miterlimit="10"
       d="M78.681,95H13.085V41.473C13.027,40.619,13,39.906,13,39.227   C13,21.096,27.751,6.345,45.884,6.345c18.131,0,32.881,14.751,32.881,32.882c0,0.68-0.026,1.397-0.084,2.256V95z M14.622,93.463   h62.521l0.001-52.06c0.058-0.833,0.084-1.526,0.084-2.177c0-17.283-14.061-31.344-31.344-31.344   c-17.284,0-31.347,14.061-31.347,31.344c0,0.65,0.027,1.339,0.083,2.167l0.002,0.052V93.463z"
       id="path6" /></g><path
     id="Auswahl"
     fill="none"
     stroke="#000000"
     stroke-width="1"
     d="m 43.211912,25.989776 -2.099212,3.781534 -2.997658,5.742332 -2.43689,4.621877 -1.243436,2.661078 6.095275,4.145684 c 0.462022,0.315126 2.152853,1.588244 2.560016,1.612051 0.453487,0.02661 1.951708,-1.123254 2.43811,-1.435582 l 6.339088,-4.322153 -2.730683,-5.462216 z m -8.558065,18.905956 c 0.292954,0.692342 0.469075,1.116321 0.675655,1.542343 l 1.462866,2.380966 3.977777,6.442615 c 0.600995,1.00981 1.676201,3.089652 2.441767,3.781534 l 2.087023,-3.361367 3.051298,-5.042043 3.354679,-5.487134 c -0.981114,0.531021 -1.919853,1.163579 -2.76344,1.760221 l -3.413355,2.306734 c -0.475431,0.320731 -1.846868,1.407573 -2.316205,1.436984 -0.513223,0.03221 -1.938297,-1.078436 -2.43811,-1.415974 z"
     sodipodi:nodetypes="cccccccccccccccccccccccc"
     style="fill:#000000;fill-opacity:0.992701;stroke:#ffffff;stroke-width:0;stroke-miterlimit:4;stroke-dasharray:none;stroke-opacity:1" /></svg>
